<svg xmlns="http://www.w3.org/2000/svg" width="100" height="33" viewBox="0 0 100 33" fill="none">
  <path d="M0.184387 0.642079C-0.277891 1.69505 0.261433 2.56824 1.39145 2.56824C2.11054 2.56824 2.36737 2.43983 2.5985 1.92618C3.06078 0.873218 2.52146 2.64645e-05 1.39145 2.64645e-05C0.672347 2.64645e-05 0.415526 0.128437 0.184387 0.642079Z" fill="white" fill-opacity="0.92"/>
  <path d="M29.8216 0.308212C29.6418 0.487987 29.5134 0.924582 29.5134 1.28413C29.5134 2.13164 29.95 2.56824 30.7975 2.56824C31.645 2.56824 32.0816 2.13164 32.0816 1.28413C32.0816 0.436622 31.645 2.64645e-05 30.7975 2.64645e-05C30.4379 2.64645e-05 30.0013 0.128437 29.8216 0.308212Z" fill="white" fill-opacity="0.92"/>
  <path d="M49.1088 5.26484C44.8456 6.42053 41.6867 9.9133 41.1217 14.0738C40.2485 20.4173 43.9724 25.6564 50.1104 26.7094C56.3512 27.788 62.1553 23.268 62.5662 16.9502L62.7203 14.8956H56.7621H50.8295V16.3081V17.7207H54.8359H58.8423L58.6626 18.5425C57.9948 21.6243 55.4009 23.6275 52.088 23.6275C48.9804 23.6275 46.9515 22.4975 45.5647 20.0064C44.8456 18.7223 44.7942 18.4398 44.7942 15.9229C44.7942 13.4831 44.8713 13.0979 45.4876 11.9165C46.7974 9.45102 48.9804 8.21828 52.088 8.21828C54.425 8.24396 56.12 9.06579 57.3271 10.7865C57.661 11.2745 57.9178 11.3258 59.7926 11.2488L61.8728 11.1717L61.3335 10.1444C59.2276 6.16371 53.8343 4.00641 49.1088 5.26484Z" fill="white" fill-opacity="0.92"/>
  <path d="M64.9547 6.54893V7.96144H67.7797H70.6047V17.3354V26.7094H72.4025H74.2002L74.2516 17.3868L74.3286 8.08985L77.1023 8.01281L79.8503 7.93576V6.54893V5.13641H72.4025H64.9547V6.54893Z" fill="white" fill-opacity="0.92"/>
  <path d="M83.0092 5.4446C83.0605 5.62437 84.5244 8.01281 86.2451 10.7351C87.9401 13.4574 89.3527 15.7945 89.3527 15.9229C89.3527 16.0256 87.9145 18.4397 86.1424 21.2905C84.3703 24.1155 82.9321 26.5039 82.9321 26.581C82.9321 26.658 83.7796 26.7094 84.8326 26.7094H86.7331L88.9674 22.8571C90.2002 20.7255 91.2275 19.0047 91.2531 19.0047C91.3045 19.0047 92.4088 20.7255 93.7186 22.8571L96.1327 26.7094H98.1616C99.7539 26.7094 100.139 26.6323 99.9594 26.3755C99.7282 26.1187 94.1552 17.1556 93.6159 16.2311C93.5132 16.0513 94.6945 13.894 96.595 10.8635C98.3414 8.08985 99.8566 5.65005 99.9594 5.47028C100.113 5.21346 99.7539 5.13641 98.1616 5.13641L96.1584 5.16209L93.9754 8.98873C92.7684 11.0947 91.7154 12.841 91.6127 12.841C91.5356 12.841 90.3799 11.0947 89.0702 8.98873L86.6817 5.13641H84.7812C83.3687 5.13641 82.9064 5.21346 83.0092 5.4446Z" fill="white" fill-opacity="0.92"/>
  <path d="M6.21971 6.00964C5.60334 6.54896 5.50061 6.83146 5.50061 7.96148C5.50061 9.14285 5.60334 9.37399 6.27107 9.91332C7.32404 10.7608 9.01906 10.7608 9.86657 9.91332C11.0736 8.70626 10.8682 6.39487 9.50702 5.65009C8.58246 5.16213 6.99017 5.3419 6.21971 6.00964Z" fill="white" fill-opacity="0.92"/>
  <path d="M22.5022 5.67571C21.1667 6.44618 21.0126 8.65484 22.2454 9.8619C23.0158 10.6324 24.6595 10.7865 25.5584 10.1444C26.8681 9.24552 26.9709 6.88277 25.7381 5.90685C25.019 5.34184 23.2983 5.21343 22.5022 5.67571Z" fill="white" fill-opacity="0.92"/>
  <path d="M14.5407 10.8892C10.3545 12.0192 9.45561 17.5152 13.0511 20.1348C14.0527 20.8539 14.3352 20.9309 16.0302 20.9309C17.7509 20.9309 17.9821 20.8539 18.8809 20.1348C20.8585 18.5425 21.5005 16.8988 21.0382 14.7415C20.3448 11.7367 17.5968 10.0931 14.5407 10.8892Z" fill="white" fill-opacity="0.92"/>
  <path d="M6.50221 21.7014C5.19242 22.6003 5.08969 24.963 6.32243 25.9389C7.04153 26.5039 8.65951 26.6324 9.50701 26.1958C10.8938 25.451 11.0736 23.0882 9.8152 21.9325C9.04474 21.2134 7.34972 21.085 6.50221 21.7014Z" fill="white" fill-opacity="0.92"/>
  <path d="M22.6819 21.5986C21.8087 22.0352 21.2181 23.268 21.4235 24.3209C21.9372 27.0689 25.8922 27.2487 26.5856 24.5521C26.9965 22.9084 25.7895 21.3161 24.1972 21.3418C23.6579 21.3418 22.9901 21.4702 22.6819 21.5986Z" fill="white" fill-opacity="0.92"/>
  <path d="M0.415538 29.7399C-0.200832 30.4333 -0.123786 31.2551 0.595313 31.7431C1.93078 32.5906 3.44603 30.9469 2.39306 29.7656C1.82805 29.1492 0.954862 29.1492 0.415538 29.7399Z" fill="white" fill-opacity="0.92"/>
  <path d="M29.9757 29.5601C29.3336 29.9197 29.3593 31.4863 30.0013 31.8458C31.1057 32.4365 32.0816 31.8201 32.0816 30.5617C32.0816 29.4831 30.9773 28.9694 29.9757 29.5601Z" fill="white" fill-opacity="0.92"/>
</svg>